<svg class="icon" style="width: 1em;height: 1em;vertical-align: middle;fill: currentColor;overflow: hidden;" viewBox="0 0 1024 1024" version="1.1" xmlns="http://www.w3.org/2000/svg" p-id="4168"><path d="M876.8 700c19.328-40 30.08-84.16 30.08-130.56a299.36 299.36 0 0 0-32.96-136.384c5.536-2.944 11.296-4.48 17.248-4.48 38.016 0 68.832 63.424 68.832 141.664 0 76.032-29.088 138.048-65.568 141.568-26.816 40-72.832 85.184-146.016 91.36-26.464 2.24-57.696 4.16-88.928 4.992a49.184 49.184 0 0 1-9.088 19.52c37.024-2.432 54.144-3.328 90.88-7.808C678.144 867.392 596.864 896 508.128 896 307.04 896 144.064 749.248 144.064 568.224c0-174.912 152.16-317.824 343.776-327.264 15.552-3.36 72.32-21.6 106.784-112.96 0 0 2.368 6.88 4.832 17.984 7.328 31.072 7.68 56.96 3.584 78.464 11.648-10.88 23.232-24.128 34.048-40.224 5.376 33.12 2.944 57.92-3.136 76.32 139.04 46.112 238.208 166.464 238.208 307.68 0 66.688-22.176 128.704-60.16 180.48-16.224 5.568-26.88 6.24-41.088 8.896-49.024 9.184-84.64 9.184-122.688 9.856 4.96 5.76 8.736 12.512 10.688 19.84a1117.12 1117.12 0 0 0 87.328-4.288c63.584-6.272 105.472-46.88 130.56-83.008zM150.08 433.28a299.392 299.392 0 0 0-32.96 136.416c0 49.152 12.064 95.776 33.6 137.664a36.864 36.864 0 0 1-17.888 4.832C94.816 712.224 64 648.768 64 570.56S94.816 428.8 132.832 428.8c5.952 0 11.744 1.568 17.248 4.48z m55.168 118.368c-4.64 42.176 4.96 128.928 92.8 150.592 72.448 17.856 136.32-22.976 174.912-58.336a57.664 57.664 0 0 1 74.368-3.2c33.44 25.6 83.072 55.328 127.744 58.592 67.648 4.992 147.2-40.64 139.232-143.264-8.16-105.76-66.4-150.08-147.808-138.816-53.92 7.456-108.16 59.392-136.896 96-11.008 14.016-33.312 9.856-42.688-0.416-62.4-68.32-116.352-110.784-193.12-85.312-64 21.184-84.352 85.952-88.544 124.16z m148 86.56c-20.576 0-37.408-17.344-37.408-38.496v-54.624c0-21.184 16.832-38.496 37.44-38.496 20.544 0 37.376 17.312 37.376 38.496v54.624c0 21.184-16.832 38.496-37.408 38.496z m317.28 0c-20.576 0-37.376-17.344-37.376-38.496v-54.624c0-21.184 16.8-38.496 37.376-38.496 20.608 0 37.44 17.312 37.44 38.496v54.624c0 21.184-16.832 38.496-37.44 38.496z m-271.232-135.68c2.432 4.288-2.976 8.704-6.464 5.248-12.192-12.096-29.76-24.32-49.12-21.504-34.848 4.992-27.136-45.152 19.04-20.576 17.696 9.44 29.248 24 36.544 36.8z m220.48 0c7.296-12.8 18.816-27.392 36.544-36.8 46.176-24.64 53.856 25.536 19.04 20.544-19.392-2.784-36.928 9.408-49.12 21.504-3.52 3.456-8.896-0.96-6.464-5.28z" fill="#000000" p-id="4169"></path></svg>